<svg viewBox="0 0 36 20" fill="none" xmlns="http://www.w3.org/2000/svg">
  <rect x="0" y="2" width="12" height="16" rx="2.5" fill="url(#logo-grad-1)" />
  <path d="M12 7.5 C14.5 7.5 14.5 12.5 12 12.5" fill="url(#logo-grad-1)" />
  <path d="M14.5 10 C14.5 7.5 12 7.5 12 10 C12 12.5 14.5 12.5 14.5 10Z" fill="url(#logo-grad-2)" />
  <rect x="12" y="2" width="12" height="16" rx="2.5" fill="url(#logo-grad-2)" />
  <path d="M24 7.5 C26.5 7.5 26.5 12.5 24 12.5" fill="url(#logo-grad-2)" />
  <path d="M26.5 10 C26.5 7.5 24 7.5 24 10 C24 12.5 26.5 12.5 26.5 10Z" fill="url(#logo-grad-3)" />
  <rect x="24" y="2" width="12" height="16" rx="2.5" fill="url(#logo-grad-3)" />
  <defs>
    <linearGradient id="logo-grad-1" x1="0" y1="10" x2="12" y2="10" gradientUnits="userSpaceOnUse">
      <stop stop-color="#a78bfa" />
      <stop offset="1" stop-color="#818cf8" />
    </linearGradient>
    <linearGradient id="logo-grad-2" x1="12" y1="10" x2="24" y2="10" gradientUnits="userSpaceOnUse">
      <stop stop-color="#818cf8" />
      <stop offset="1" stop-color="#60a5fa" />
    </linearGradient>
    <linearGradient id="logo-grad-3" x1="24" y1="10" x2="36" y2="10" gradientUnits="userSpaceOnUse">
      <stop stop-color="#60a5fa" />
      <stop offset="1" stop-color="#38bdf8" />
    </linearGradient>
  </defs>
</svg>
